<?xml version="1.0" standalone="no"?>
<svg xmlns:xlink="http://www.w3.org/1999/xlink" id="wave" style="transform:rotate(180deg); transition: 0.3s" viewBox="0 0 1440 100" version="1.1" xmlns="http://www.w3.org/2000/svg"><defs><linearGradient id="sw-gradient-0" x1="0" x2="0" y1="1" y2="0"><stop stop-color="rgba(242, 242, 242, 1)" offset="0%"/><stop stop-color="rgba(242, 242, 242, 1)" offset="100%"/></linearGradient></defs><path style="transform:translate(0, 0px); opacity:1" fill="url(#sw-gradient-0)" d="M0,20L40,28.3C80,37,160,53,240,50C320,47,400,23,480,25C560,27,640,53,720,55C800,57,880,33,960,31.7C1040,30,1120,50,1200,53.3C1280,57,1360,43,1440,35C1520,27,1600,23,1680,33.3C1760,43,1840,67,1920,71.7C2000,77,2080,63,2160,53.3C2240,43,2320,37,2400,33.3C2480,30,2560,30,2640,28.3C2720,27,2800,23,2880,28.3C2960,33,3040,47,3120,58.3C3200,70,3280,80,3360,83.3C3440,87,3520,83,3600,73.3C3680,63,3760,47,3840,45C3920,43,4000,57,4080,51.7C4160,47,4240,23,4320,26.7C4400,30,4480,60,4560,71.7C4640,83,4720,77,4800,68.3C4880,60,4960,50,5040,53.3C5120,57,5200,73,5280,68.3C5360,63,5440,37,5520,33.3C5600,30,5680,50,5720,60L5760,70L5760,100L5720,100C5680,100,5600,100,5520,100C5440,100,5360,100,5280,100C5200,100,5120,100,5040,100C4960,100,4880,100,4800,100C4720,100,4640,100,4560,100C4480,100,4400,100,4320,100C4240,100,4160,100,4080,100C4000,100,3920,100,3840,100C3760,100,3680,100,3600,100C3520,100,3440,100,3360,100C3280,100,3200,100,3120,100C3040,100,2960,100,2880,100C2800,100,2720,100,2640,100C2560,100,2480,100,2400,100C2320,100,2240,100,2160,100C2080,100,2000,100,1920,100C1840,100,1760,100,1680,100C1600,100,1520,100,1440,100C1360,100,1280,100,1200,100C1120,100,1040,100,960,100C880,100,800,100,720,100C640,100,560,100,480,100C400,100,320,100,240,100C160,100,80,100,40,100L0,100Z"/></svg>